<svg xmlns="http://www.w3.org/2000/svg" xmlns:xlink="http://www.w3.org/1999/xlink" width="1000" zoomAndPan="magnify" viewBox="0 0 750 374.999991" height="500" preserveAspectRatio="xMidYMid meet" version="1.0"><defs><g/></defs><g fill="rgb(1.179504%, 10.198975%, 35.688782%)" fill-opacity="1"><g transform="translate(0.000009, 242.280356)"><g><path d="M 60.882812 1.300781 C 84.816406 1.300781 106.140625 -11.882812 112.164062 -34.1875 C 112.816406 -36.464844 111.511719 -37.769531 109.234375 -37.769531 L 89.859375 -37.769531 C 88.070312 -37.769531 86.929688 -36.953125 86.117188 -35.164062 C 82.371094 -25.882812 72.441406 -20.835938 60.882812 -20.835938 C 42.976562 -20.835938 28.488281 -33.535156 28.488281 -55.675781 C 28.488281 -77.652344 42.976562 -90.347656 60.882812 -90.347656 C 72.28125 -90.347656 82.210938 -85.304688 86.117188 -76.1875 C 86.929688 -74.394531 88.070312 -73.582031 89.859375 -73.582031 L 109.070312 -73.582031 C 111.347656 -73.582031 112.652344 -74.882812 112 -77.164062 C 105.816406 -99.140625 85.304688 -112.488281 61.046875 -112.488281 C 30.117188 -112.488281 4.070312 -90.675781 4.070312 -55.675781 C 4.070312 -21.164062 29.464844 1.300781 60.882812 1.300781 Z M 60.882812 1.300781 "/></g></g></g><g fill="rgb(1.179504%, 10.198975%, 35.688782%)" fill-opacity="1"><g transform="translate(116.064151, 242.280356)"><g><path d="M 38.417969 0 C 79.605469 0 98.324219 -24.09375 98.324219 -55.347656 C 98.324219 -86.605469 79.441406 -110.699219 38.417969 -110.699219 L 12.046875 -110.699219 C 9.929688 -110.699219 8.789062 -109.558594 8.789062 -107.441406 L 8.789062 -3.253906 C 8.789062 -1.140625 9.929688 0 12.046875 0 Z M 33.210938 -88.558594 L 40.699219 -88.558594 C 64.464844 -88.558594 73.90625 -73.746094 73.90625 -55.347656 C 73.90625 -36.953125 64.300781 -22.140625 40.699219 -22.140625 L 33.210938 -22.140625 Z M 33.210938 -88.558594 "/></g></g></g><g fill="rgb(1.179504%, 10.198975%, 35.688782%)" fill-opacity="1"><g transform="translate(218.780108, 242.280356)"><g><path d="M 60.882812 1.300781 C 84.816406 1.300781 106.140625 -11.882812 112.164062 -34.1875 C 112.816406 -36.464844 111.511719 -37.769531 109.234375 -37.769531 L 89.859375 -37.769531 C 88.070312 -37.769531 86.929688 -36.953125 86.117188 -35.164062 C 82.371094 -25.882812 72.441406 -20.835938 60.882812 -20.835938 C 42.976562 -20.835938 28.488281 -33.535156 28.488281 -55.675781 C 28.488281 -77.652344 42.976562 -90.347656 60.882812 -90.347656 C 72.28125 -90.347656 82.210938 -85.304688 86.117188 -76.1875 C 86.929688 -74.394531 88.070312 -73.582031 89.859375 -73.582031 L 109.070312 -73.582031 C 111.347656 -73.582031 112.652344 -74.882812 112 -77.164062 C 105.816406 -99.140625 85.304688 -112.488281 61.046875 -112.488281 C 30.117188 -112.488281 4.070312 -90.675781 4.070312 -55.675781 C 4.070312 -21.164062 29.464844 1.300781 60.882812 1.300781 Z M 60.882812 1.300781 "/></g></g></g><g fill="rgb(1.179504%, 10.198975%, 35.688782%)" fill-opacity="1"><g transform="translate(334.840637, 242.280356)"><g/></g></g><g fill="rgb(100%, 100%, 100%)" fill-opacity="1"><g transform="translate(356.444868, 242.736879)"><g><path d="M 50.566406 1.617188 C 77.867188 1.617188 93.863281 -13.570312 93.863281 -44.105469 L 93.863281 -109.855469 C 79.804688 -108.238281 69.628906 -96.285156 69.628906 -76.089844 L 69.628906 -44.105469 C 69.628906 -28.917969 65.429688 -20.355469 50.566406 -20.355469 C 36.027344 -20.355469 31.824219 -28.917969 31.824219 -44.105469 L 31.824219 -106.625 C 31.824219 -108.722656 30.695312 -109.855469 28.59375 -109.855469 L 10.824219 -109.855469 C 8.722656 -109.855469 7.59375 -108.722656 7.59375 -106.625 L 7.59375 -42.8125 C 7.59375 -13.570312 23.585938 1.617188 50.566406 1.617188 Z M 50.566406 1.617188 "/></g></g></g><g fill="rgb(100%, 100%, 100%)" fill-opacity="1"><g transform="translate(457.895784, 242.736879)"><g><path d="M 68.496094 -87.882812 C 70.597656 -87.882812 71.730469 -89.015625 71.730469 -91.113281 L 71.730469 -106.625 C 71.730469 -108.722656 70.597656 -109.855469 68.496094 -109.855469 L 11.308594 -109.855469 C 9.207031 -109.855469 8.078125 -108.722656 8.078125 -106.625 L 8.078125 -91.113281 C 8.078125 -89.015625 9.207031 -87.882812 11.308594 -87.882812 L 25.765625 -87.882812 C 15.1875 -83.765625 8.078125 -72.617188 8.078125 -55.734375 L 8.078125 -3.230469 C 8.078125 -1.132812 9.207031 0 11.308594 0 L 68.496094 0 C 70.597656 0 71.730469 -1.132812 71.730469 -3.230469 L 71.730469 -18.738281 C 71.730469 -20.839844 70.597656 -21.972656 68.496094 -21.972656 L 32.308594 -21.972656 L 32.308594 -61.308594 C 36.1875 -52.019531 46.203125 -45.71875 61.390625 -45.71875 L 66.882812 -45.71875 C 68.984375 -45.71875 70.113281 -46.851562 70.113281 -48.949219 L 70.113281 -64.460938 C 70.113281 -66.558594 68.984375 -67.691406 66.882812 -67.691406 L 32.308594 -67.691406 L 32.308594 -87.882812 Z M 68.496094 -87.882812 "/></g></g></g><g fill="rgb(100%, 100%, 100%)" fill-opacity="1"><g transform="translate(536.245614, 242.736879)"><g><path d="M 47.171875 1.617188 C 66.398438 1.617188 89.5 -6.625 89.5 -33.601562 C 89.5 -57.1875 72.050781 -62.519531 56.058594 -66.074219 C 43.457031 -68.820312 31.988281 -70.113281 31.988281 -80.613281 C 31.988281 -88.046875 37.640625 -91.761719 46.203125 -91.761719 C 54.28125 -91.761719 60.582031 -88.53125 62.359375 -79.484375 C 62.683594 -77.382812 63.8125 -76.414062 65.75 -76.414062 L 83.199219 -76.414062 C 85.300781 -76.414062 86.429688 -77.542969 86.269531 -79.804688 C 84.492188 -102.261719 65.105469 -111.46875 46.6875 -111.46875 C 27.464844 -111.46875 7.753906 -101.132812 7.753906 -77.222656 C 7.753906 -57.1875 21.648438 -51.375 34.734375 -47.820312 C 49.757812 -43.78125 65.265625 -43.132812 65.265625 -30.046875 C 65.265625 -21 57.675781 -18.09375 49.597656 -18.09375 C 39.09375 -18.09375 31.179688 -23.101562 29.726562 -33.117188 C 29.5625 -35.058594 28.433594 -36.1875 26.496094 -36.1875 L 7.59375 -36.1875 C 5.492188 -36.1875 4.363281 -35.058594 4.363281 -32.957031 C 5.65625 -8.402344 26.011719 1.617188 47.171875 1.617188 Z M 47.171875 1.617188 "/></g></g></g><g fill="rgb(100%, 100%, 100%)" fill-opacity="1"><g transform="translate(630.750038, 242.736879)"><g><path d="M 60.421875 1.292969 C 84.167969 1.292969 105.332031 -11.792969 111.308594 -33.925781 C 111.957031 -36.1875 110.664062 -37.480469 108.402344 -37.480469 L 89.175781 -37.480469 C 87.398438 -37.480469 86.269531 -36.671875 85.460938 -34.894531 C 81.746094 -25.6875 71.890625 -20.679688 60.421875 -20.679688 C 42.648438 -20.679688 28.273438 -33.28125 28.273438 -55.25 C 28.273438 -77.058594 42.648438 -89.660156 60.421875 -89.660156 C 71.730469 -89.660156 81.582031 -84.652344 85.460938 -75.605469 C 86.269531 -73.828125 87.398438 -73.019531 89.175781 -73.019531 L 108.238281 -73.019531 C 110.5 -73.019531 111.792969 -74.3125 111.148438 -76.574219 C 105.007812 -98.386719 84.652344 -111.632812 60.582031 -111.632812 C 29.886719 -111.632812 4.039062 -89.984375 4.039062 -55.25 C 4.039062 -21 29.242188 1.292969 60.421875 1.292969 Z M 60.421875 1.292969 "/></g></g></g><g fill="rgb(100%, 100%, 100%)" fill-opacity="1"><g transform="translate(745.926067, 242.736879)"><g/></g></g></svg>