<svg xmlns="http://www.w3.org/2000/svg" xmlns:xlink="http://www.w3.org/1999/xlink" width="500" zoomAndPan="magnify" viewBox="0 0 375 374.999991" height="500" preserveAspectRatio="xMidYMid meet" version="1.0"><defs><g/></defs><path fill="rgb(11.759949%, 21.179199%, 36.079407%)" d="M 187.5 2.90625 C 86.074219 2.90625 4.367188 84.613281 4.367188 186.039062 C 4.367188 287.46875 86.074219 369.171875 187.5 369.171875 C 287.988281 369.171875 370.632812 287.46875 370.632812 186.039062 C 370.632812 84.613281 287.988281 2.90625 187.5 2.90625 Z M 187.5 341 C 102.039062 341 32.542969 271.5 32.542969 186.039062 C 32.542969 100.578125 102.039062 31.082031 187.5 31.082031 C 272.960938 31.082031 342.457031 100.578125 342.457031 186.039062 C 342.457031 271.5 272.960938 341 187.5 341 Z M 187.5 341 " fill-opacity="1" fill-rule="nonzero"/><path fill="rgb(47.839355%, 79.60968%, 80.389404%)" d="M 187.5 31.082031 C 102.039062 31.082031 32.542969 100.578125 32.542969 186.039062 C 32.542969 271.5 102.039062 341 187.5 341 C 272.960938 341 342.457031 271.5 342.457031 186.039062 C 342.457031 100.578125 272.960938 31.082031 187.5 31.082031 Z M 187.5 31.082031 " fill-opacity="1" fill-rule="nonzero"/><g fill="rgb(1.179504%, 10.198975%, 35.688782%)" fill-opacity="1"><g transform="translate(78.67163, 176.385606)"><g><path d="M 38.289062 0.820312 C 53.339844 0.820312 66.75 -7.472656 70.539062 -21.5 C 70.949219 -22.933594 70.128906 -23.753906 68.695312 -23.753906 L 56.511719 -23.753906 C 55.386719 -23.753906 54.671875 -23.238281 54.160156 -22.113281 C 51.804688 -16.277344 45.558594 -13.105469 38.289062 -13.105469 C 27.027344 -13.105469 17.917969 -21.089844 17.917969 -35.015625 C 17.917969 -48.835938 27.027344 -56.820312 38.289062 -56.820312 C 45.457031 -56.820312 51.703125 -53.648438 54.160156 -47.914062 C 54.671875 -46.789062 55.386719 -46.277344 56.511719 -46.277344 L 68.59375 -46.277344 C 70.027344 -46.277344 70.847656 -47.09375 70.4375 -48.527344 C 66.546875 -62.347656 53.648438 -70.742188 38.390625 -70.742188 C 18.941406 -70.742188 2.558594 -57.023438 2.558594 -35.015625 C 2.558594 -13.308594 18.53125 0.820312 38.289062 0.820312 Z M 38.289062 0.820312 "/></g></g></g><g fill="rgb(1.179504%, 10.198975%, 35.688782%)" fill-opacity="1"><g transform="translate(151.667976, 176.385606)"><g><path d="M 24.160156 0 C 50.0625 0 61.835938 -15.152344 61.835938 -34.808594 C 61.835938 -54.464844 49.960938 -69.617188 24.160156 -69.617188 L 7.574219 -69.617188 C 6.246094 -69.617188 5.527344 -68.902344 5.527344 -67.570312 L 5.527344 -2.046875 C 5.527344 -0.714844 6.246094 0 7.574219 0 Z M 20.886719 -55.695312 L 25.59375 -55.695312 C 40.542969 -55.695312 46.480469 -46.378906 46.480469 -34.808594 C 46.480469 -23.238281 40.441406 -13.921875 25.59375 -13.921875 L 20.886719 -13.921875 Z M 20.886719 -55.695312 "/></g></g></g><g fill="rgb(1.179504%, 10.198975%, 35.688782%)" fill-opacity="1"><g transform="translate(216.269241, 176.385606)"><g><path d="M 38.289062 0.820312 C 53.339844 0.820312 66.75 -7.472656 70.539062 -21.5 C 70.949219 -22.933594 70.128906 -23.753906 68.695312 -23.753906 L 56.511719 -23.753906 C 55.386719 -23.753906 54.671875 -23.238281 54.160156 -22.113281 C 51.804688 -16.277344 45.558594 -13.105469 38.289062 -13.105469 C 27.027344 -13.105469 17.917969 -21.089844 17.917969 -35.015625 C 17.917969 -48.835938 27.027344 -56.820312 38.289062 -56.820312 C 45.457031 -56.820312 51.703125 -53.648438 54.160156 -47.914062 C 54.671875 -46.789062 55.386719 -46.277344 56.511719 -46.277344 L 68.59375 -46.277344 C 70.027344 -46.277344 70.847656 -47.09375 70.4375 -48.527344 C 66.546875 -62.347656 53.648438 -70.742188 38.390625 -70.742188 C 18.941406 -70.742188 2.558594 -57.023438 2.558594 -35.015625 C 2.558594 -13.308594 18.53125 0.820312 38.289062 0.820312 Z M 38.289062 0.820312 "/></g></g></g><g fill="rgb(1.179504%, 10.198975%, 35.688782%)" fill-opacity="1"><g transform="translate(289.252996, 176.385606)"><g/></g></g><g fill="rgb(1.179504%, 10.198975%, 35.688782%)" fill-opacity="1"><g transform="translate(59.848928, 266.971418)"><g><path d="M 32.6875 1.042969 C 50.335938 1.042969 60.675781 -8.773438 60.675781 -28.507812 L 60.675781 -71.011719 C 51.589844 -69.96875 45.007812 -62.242188 45.007812 -49.1875 L 45.007812 -28.507812 C 45.007812 -18.691406 42.292969 -13.15625 32.6875 -13.15625 C 23.289062 -13.15625 20.574219 -18.691406 20.574219 -28.507812 L 20.574219 -68.921875 C 20.574219 -70.28125 19.839844 -71.011719 18.484375 -71.011719 L 6.996094 -71.011719 C 5.640625 -71.011719 4.910156 -70.28125 4.910156 -68.921875 L 4.910156 -27.675781 C 4.910156 -8.773438 15.246094 1.042969 32.6875 1.042969 Z M 32.6875 1.042969 "/></g></g></g><g fill="rgb(1.179504%, 10.198975%, 35.688782%)" fill-opacity="1"><g transform="translate(125.428399, 266.971418)"><g><path d="M 44.277344 -56.808594 C 45.636719 -56.808594 46.367188 -57.539062 46.367188 -58.898438 L 46.367188 -68.921875 C 46.367188 -70.28125 45.636719 -71.011719 44.277344 -71.011719 L 7.308594 -71.011719 C 5.953125 -71.011719 5.222656 -70.28125 5.222656 -68.921875 L 5.222656 -58.898438 C 5.222656 -57.539062 5.953125 -56.808594 7.308594 -56.808594 L 16.65625 -56.808594 C 9.816406 -54.148438 5.222656 -46.941406 5.222656 -36.027344 L 5.222656 -2.089844 C 5.222656 -0.730469 5.953125 0 7.308594 0 L 44.277344 0 C 45.636719 0 46.367188 -0.730469 46.367188 -2.089844 L 46.367188 -12.113281 C 46.367188 -13.472656 45.636719 -14.203125 44.277344 -14.203125 L 20.886719 -14.203125 L 20.886719 -39.632812 C 23.390625 -33.625 29.867188 -29.554688 39.683594 -29.554688 L 43.234375 -29.554688 C 44.589844 -29.554688 45.324219 -30.285156 45.324219 -31.640625 L 45.324219 -41.667969 C 45.324219 -43.023438 44.589844 -43.757812 43.234375 -43.757812 L 20.886719 -43.757812 L 20.886719 -56.808594 Z M 44.277344 -56.808594 "/></g></g></g><g fill="rgb(1.179504%, 10.198975%, 35.688782%)" fill-opacity="1"><g transform="translate(176.074957, 266.971418)"><g><path d="M 30.492188 1.042969 C 42.921875 1.042969 57.855469 -4.28125 57.855469 -21.722656 C 57.855469 -36.96875 46.574219 -40.414062 36.238281 -42.710938 C 28.089844 -44.488281 20.675781 -45.324219 20.675781 -52.109375 C 20.675781 -56.914062 24.332031 -59.316406 29.867188 -59.316406 C 35.089844 -59.316406 39.160156 -57.226562 40.308594 -51.378906 C 40.519531 -50.023438 41.25 -49.394531 42.503906 -49.394531 L 53.78125 -49.394531 C 55.140625 -49.394531 55.871094 -50.125 55.765625 -51.589844 C 54.617188 -66.105469 42.085938 -72.058594 30.179688 -72.058594 C 17.753906 -72.058594 5.011719 -65.375 5.011719 -49.917969 C 5.011719 -36.96875 13.992188 -33.207031 22.453125 -30.910156 C 32.164062 -28.300781 42.191406 -27.882812 42.191406 -19.425781 C 42.191406 -13.574219 37.28125 -11.695312 32.058594 -11.695312 C 25.273438 -11.695312 20.15625 -14.933594 19.214844 -21.40625 C 19.109375 -22.660156 18.378906 -23.390625 17.125 -23.390625 L 4.910156 -23.390625 C 3.550781 -23.390625 2.820312 -22.660156 2.820312 -21.304688 C 3.65625 -5.429688 16.8125 1.042969 30.492188 1.042969 Z M 30.492188 1.042969 "/></g></g></g><g fill="rgb(1.179504%, 10.198975%, 35.688782%)" fill-opacity="1"><g transform="translate(237.16411, 266.971418)"><g><path d="M 39.058594 0.835938 C 54.40625 0.835938 68.089844 -7.625 71.953125 -21.929688 C 72.371094 -23.390625 71.535156 -24.226562 70.074219 -24.226562 L 57.644531 -24.226562 C 56.496094 -24.226562 55.765625 -23.707031 55.242188 -22.558594 C 52.839844 -16.605469 46.472656 -13.367188 39.058594 -13.367188 C 27.570312 -13.367188 18.273438 -21.511719 18.273438 -35.714844 C 18.273438 -49.8125 27.570312 -57.957031 39.058594 -57.957031 C 46.367188 -57.957031 52.738281 -54.722656 55.242188 -48.875 C 55.765625 -47.722656 56.496094 -47.203125 57.644531 -47.203125 L 69.96875 -47.203125 C 71.429688 -47.203125 72.265625 -48.039062 71.847656 -49.5 C 67.878906 -63.597656 54.722656 -72.160156 39.160156 -72.160156 C 19.320312 -72.160156 2.609375 -58.167969 2.609375 -35.714844 C 2.609375 -13.574219 18.902344 0.835938 39.058594 0.835938 Z M 39.058594 0.835938 "/></g></g></g><g fill="rgb(1.179504%, 10.198975%, 35.688782%)" fill-opacity="1"><g transform="translate(311.614536, 266.971418)"><g/></g></g></svg>